<?xml version="1.0" standalone="no"?>
<!DOCTYPE svg PUBLIC "-//W3C//DTD SVG 20010904//EN"
 "http://www.w3.org/TR/2001/REC-SVG-20010904/DTD/svg10.dtd">
<svg version="1.0" xmlns="http://www.w3.org/2000/svg"
 width="700.000000pt" height="700.000000pt" viewBox="0 0 700.000000 700.000000"
 preserveAspectRatio="xMidYMid meet">
<metadata>
Created by potrace 1.11, written by Peter Selinger 2001-2013
</metadata>
<g transform="translate(0.000000,700.000000) scale(0.100000,-0.100000)"
fill="#000000" stroke="none">
<path d="M2841 6984 c-285 -36 -521 -105 -766 -224 -465 -227 -818 -575 -1040
-1025 -58 -116 -156 -364 -169 -426 -3 -13 -15 -60 -27 -104 -24 -91 -27 -106
-35 -155 -2 -19 -9 -57 -14 -85 -39 -214 -47 -609 -16 -815 2 -14 7 -52 11
-85 4 -33 13 -85 20 -115 8 -30 16 -68 19 -85 11 -61 15 -76 52 -192 57 -182
110 -307 194 -458 46 -84 76 -127 544 -800 38 -55 103 -149 145 -210 41 -60
134 -194 206 -297 71 -103 201 -290 287 -415 86 -126 179 -259 206 -298 27
-38 109 -158 183 -265 74 -107 151 -217 170 -245 19 -27 62 -88 94 -135 98
-141 197 -285 200 -288 2 -2 41 51 87 117 112 163 305 440 327 471 l18 25 54
-41 c152 -113 397 -219 558 -240 25 -3 66 -10 91 -14 49 -9 326 -6 375 4 102
21 140 31 224 58 120 38 295 123 346 168 51 45 62 44 108 -3 124 -130 282
-295 447 -467 342 -358 329 -347 402 -335 82 14 130 108 91 180 -15 28 -125
147 -383 414 -168 175 -396 415 -402 424 -3 6 13 33 37 61 65 77 130 180 180
283 47 98 110 291 119 366 3 25 9 63 12 84 20 116 0 364 -40 517 -80 304 -282
591 -545 777 l-88 61 58 112 c112 216 195 470 243 741 11 65 27 194 32 270 5
73 5 396 0 425 -3 14 -7 54 -11 90 -7 78 -22 178 -35 240 -5 25 -12 57 -14 71
-32 198 -178 571 -307 784 -323 534 -893 926 -1524 1049 -214 42 -526 55 -724
30z m389 -1549 c244 -28 472 -186 584 -405 74 -144 95 -236 91 -388 -8 -233
-111 -440 -290 -582 -140 -111 -290 -165 -467 -169 -311 -8 -586 162 -719 444
-107 226 -97 504 25 712 96 164 226 276 399 344 63 25 71 27 172 43 84 13 101
13 205 1z"/>
</g>
</svg>
